<?xml version="1.0" encoding="utf-8"?>
<!-- Svg Vector Icons : http://www.onlinewebfonts.com/icon -->
<!DOCTYPE svg PUBLIC "-//W3C//DTD SVG 1.1//EN" "http://www.w3.org/Graphics/SVG/1.1/DTD/svg11.dtd">
<svg version="1.1" xmlns="http://www.w3.org/2000/svg" xmlns:xlink="http://www.w3.org/1999/xlink" x="0px" y="0px" viewBox="0 0 1000 1000" enable-background="new 0 0 1000 1000" xml:space="preserve">
<metadata> Svg Vector Icons : http://www.onlinewebfonts.com/icon </metadata>
<g><path fill="#666666" d="M972.1,885.5L781.8,695.2c53.6-71.6,85.7-160.1,85.7-256.4C867.5,201.9,675.6,10,438.8,10S10,201.9,10,438.8c0,236.8,191.9,428.8,428.8,428.8c96.3,0,184.9-32.1,256.5-85.7l190.2,190.3c23.9,23.9,62.7,23.9,86.6,0C996,948.1,996,909.4,972.1,885.5z M438.8,745c-169.2,0-306.3-137.1-306.3-306.3c0-169.2,137.1-306.3,306.3-306.3c169.2,0,306.3,137.1,306.3,306.3C745,607.9,607.9,745,438.8,745z"/></g>
</svg>