<!-- Generated by IcoMoon.io -->
<svg version="1.1" xmlns="http://www.w3.org/2000/svg" width="2901" height="1024" viewBox="0 0 2901 1024">
<title></title>
<g id="icomoon-ignore">
</g>
<path fill="#333333" d="M1612.616 496.708h-123.922v33.133c0 10.519 8.568 19.095 19.091 19.095h68.99v17.166c-9.177 19.537-38.361 51.052-92.845 51.052-60.514 0-102.764-42.781-102.764-104.056 0-61.011 41.375-103.617 100.619-103.617 34.346 0 66.192 16.245 83.079 42.372l2.571 3.952 61.378-16.313-4.1-7.291c-29.147-51.712-81.202-81.862-142.929-82.745-44.153 0-85.142 16.45-115.455 46.283-30.795 30.324-47.753 71.999-47.753 117.355 0 45.367 16.957 87.045 47.753 117.366 30.313 29.83 71.301 46.276 115.455 46.276 1.284 0 2.564-0.007 3.618-0.063 0.515 0 1.043 0 1.392-0.015l0.319-0.018c0.683-0.015 1.377-0.052 1.971-0.085 36.606-1.48 70.444-14.223 97.84-36.821 18.661-15.351 33.207-34.357 43.223-56.433l0.572-1.284v-66.229c-0.004-10.174-7.952-18.543-18.101-19.080z"></path>
<path fill="#333333" d="M2102.162 349.482c-44.15 0-85.142 16.427-115.467 46.265-30.788 30.328-47.745 71.991-47.745 117.355 0 45.356 16.957 87.038 47.745 117.359 30.324 29.83 71.316 46.265 115.467 46.265 44.142 0 85.216-16.427 115.64-46.265 30.939-30.358 47.979-72.043 47.979-117.359 0-45.323-17.040-87.012-47.979-117.362-30.424-29.83-71.494-46.257-115.64-46.257zM2102.162 616.735c-59.249 0-100.623-42.614-100.623-103.628 0-61.011 41.375-103.628 100.623-103.628 59.471 0 101.038 42.614 101.038 103.628s-41.567 103.628-101.038 103.628z"></path>
<path fill="#333333" d="M2268.368 374.615v38.758h97.124v257.297h60.863v-257.297h78.926c10.523 0 19.091-8.579 19.091-19.106v-38.743h-236.906c-10.545 0-19.099 8.557-19.099 19.091z"></path>
<path fill="#333333" d="M2557.172 374.615v296.055h41.783c10.516 0 19.084-8.542 19.084-19.076v-296.070h-41.775c-10.523 0-19.091 8.557-19.091 19.091z"></path>
<path fill="#333333" d="M2799.651 482.336c-3.658-1.187-7.298-2.353-10.887-3.492-33.018-10.53-61.524-19.622-61.524-40.002 0-25.789 26.324-34.985 50.97-34.985 30.888 0 54.655 18.657 60.566 47.512l1.377 6.761 41.237-11.303c7.658-2.702 12.769-9.867 12.769-18.015 0-2.097-0.334-4.156-1.002-6.093-0.074-0.245-0.152-0.478-0.245-0.716-0.115-0.293-0.234-0.583-0.364-0.853-16.932-43.549-61.127-71.683-112.613-71.683-65.234 0-114.424 39.17-114.424 91.093 0 58.142 54.109 76.407 86.493 87.335 4.805 1.565 9.703 3.099 14.624 4.635 37.244 11.656 72.444 22.642 72.444 49.65 0 22.65-22.364 38.457-54.392 38.457-41.99 0-65.286-27.816-69.178-53.668l-1.087-7.154-43.861 12.008c-6.964 2.412-11.344 9.8-11.344 17.463 0 3.804 1.506 7.437 1.506 7.437 18.393 50.106 63.735 80.014 121.366 80.014 70.14 0 119.132-39.767 119.132-96.697 0.015-65.175-58.703-83.977-101.566-97.703z"></path>
<path fill="#333333" d="M1177.989 355.523h-40.005l-154.874 315.157h55.564c7.284 0 14.037-4.23 17.214-10.772l23.838-49.030c1.087-1.982 3.165-3.228 5.429-3.228h145.671c1.781 0 3.47 0.775 4.635 2.108l25.177 51.215c3.373 5.993 9.759 9.703 16.631 9.703h55.608l-154.889-315.153zM1157.984 450.017l48.398 99.789h-96.79l48.391-99.789z"></path>
<path fill="#333333" d="M1909.614 459.137c0-63.917-46.999-103.613-122.636-103.613h-86.237c-10.53 0-19.095 8.564-19.095 19.095v276.975c0 10.527 8.568 19.087 19.095 19.087h41.761v-257.315h50.102c34.577 0 54.406 16.688 54.406 45.772 0 29.092-19.83 45.772-54.406 45.772h-36.84l96.972 156.428c0.107 0.19 0.227 0.386 0.364 0.587 3.529 5.491 9.515 8.757 16.067 8.757h58.146l-75.097-120.434c37.082-16.917 57.397-48.985 57.397-91.11z"></path>
<path fill="#00725d" d="M700.785 593.499l-218.167-0.026c-7.036 0-12.739 3.162-15.206 7.808-0.1 0.216-0.19 0.449-0.286 0.664l-28.272 59.935-1.161 2.505c-2.649 4.253-8.068 7.11-14.75 7.11l-358.71-0.078 37.827-68.203c0.115-0.301 0.219-0.594 0.386-0.849 2.438-4.668 8.145-7.845 15.21-7.845l244.729-1.31c0.542 0.063 1.106 0.063 1.655 0.063 0.561 0 1.113 0 1.644-0.026 6.252-0.471 11.195-3.444 13.474-7.677 0.044-0.044 0.078-0.078 0.070-0.096l0.508-1.135c0.037-0.052 0.063-0.137 0.070-0.197l27.856-59.082c0.137-0.286 0.271-0.598 0.426-0.879 2.449-4.657 8.131-7.808 15.176-7.808l221.948 0.026c7.273 0 13.919 3.084 18.297 8.876 0.067 0.092 0.133 0.17 0.186 0.249l37.089 67.977zM805.553 787.208l-79.339-147.159-1.010-1.325c0-0.018-0.011-0.052-0.018-0.070-3.837-4.624-10.423-7.737-17.441-7.737l-196.585-0.037c-6.92 0-12.524 3.031-15.062 7.577l-0.727 1.547-28.375 60.258c-0.133 0.293-0.279 0.542-0.378 0.82-2.483 4.668-8.164 7.793-15.21 7.793l-397.509-0.041c-5.633 0-11.281 1.774-15.281 8.712l-38.446 69.52 805.382 0.141zM563.181 342.188l-237.403-0.018c-6.049 0-10.943 3.14-13.050 7.808-0.133 0.29-0.264 0.579-0.341 0.894l-33.029 81.398c-0.078 0.271-0.205 0.526-0.316 0.798-2.126 4.646-7.021 7.808-13.088 7.808l-72.7-0.018 105.718-194.931c2.089-5.881 7.451-9.136 13.611-9.136l183.246 0.018c6.023 0 11.671 3.136 14.977 7.741l0.052 0.078c0.122 0.194 0.805 1.191 0.842 1.332l51.483 96.23zM638.646 479.097l-49.567-90.983c-0.186-0.293-0.356-0.561-0.557-0.816-3.437-4.657-9.355-7.826-15.682-7.826l-222.958-0.007c-6.36 0-11.44 3.151-13.637 7.819-0.148 0.275-0.271 0.542-0.375 0.849l-33.815 80.051c-0.308 1.246-0.809 2.438-1.484 3.514-2.338 3.771-6.75 6.316-12.068 6.568-0.297 0-0.565 0-0.871 0-0.271 0-0.55 0-0.853 0l-106.694-0.015c-5.655-0.018-10.85 2.987-13.893 8.461l-36.918 66.852 213.736 2.282c4.513-0.542 8.208-2.809 10.412-6.012l1.881-4.46 24.156-57.186c0.033-0.067 0.044-0.104 0.070-0.155 0.115-0.401 0.304-0.794 0.463-1.154 0.026-0.033 0.037-0.085 0.085-0.111 2.237-4.598 7.284-7.677 13.541-7.677l245.025 0.007z"></path>
</svg>
